<svg width="40" height="40" viewBox="0 0 40 40" fill="none" xmlns="http://www.w3.org/2000/svg">
<rect x="21.6667" y="23.3333" width="3.33333" height="3.33333" rx="1" fill="#FFDB6E"/>
<path d="M16.6667 23.3333H10" stroke="#FFDB6E" stroke-linecap="round"/>
<path d="M13.3333 20L13.3333 26.6667" stroke="#FFDB6E" stroke-linecap="round"/>
<rect x="26.6667" y="20" width="3.33333" height="3.33333" rx="1" fill="#FFDB6E"/>
<path d="M23.3333 13.3333V13.1231C23.3333 11.6232 23.3333 10.8732 22.9097 10.3307C22.4862 9.7882 21.7586 9.60631 20.3035 9.24253L19.6965 9.09079C18.2414 8.72701 17.5138 8.54512 17.0903 8.0026C16.6667 7.46008 16.6667 6.71013 16.6667 5.21022V3.33333" stroke="#FFDB6E" stroke-linecap="round"/>
<path d="M5 23.3333C5 19.0686 5 16.9363 6.03323 15.4674C6.29924 15.0892 6.60953 14.7507 6.95619 14.4605C8.30273 13.3333 10.2574 13.3333 14.1667 13.3333H25.8333C29.7426 13.3333 31.6973 13.3333 33.0438 14.4605C33.3905 14.7507 33.7008 15.0892 33.9668 15.4674C35 16.9363 35 19.0686 35 23.3333C35 27.598 35 29.7304 33.9668 31.1993C33.7008 31.5775 33.3905 31.916 33.0438 32.2062C31.6973 33.3333 29.7426 33.3333 25.8333 33.3333H14.1667C10.2574 33.3333 8.30273 33.3333 6.95619 32.2062C6.60953 31.916 6.29924 31.5775 6.03323 31.1993C5 29.7304 5 27.598 5 23.3333Z" stroke="#FFDB6E"/>
</svg>
