<svg width="40" height="40" viewBox="0 0 40 40" fill="none" xmlns="http://www.w3.org/2000/svg">
<path d="M21.6667 4.5H18.3333L18.2951 4.5C16.7562 4.49999 15.5501 4.49998 14.6091 4.6265C13.646 4.75599 12.886 5.02622 12.2894 5.62276C11.6929 6.2193 11.4227 6.97931 11.2932 7.94247C11.1667 8.88346 11.1667 10.0895 11.1667 11.6284L11.1667 11.6667V28.3333L11.1667 28.3716C11.1667 29.9105 11.1667 31.1165 11.2932 32.0575C11.4227 33.0207 11.6929 33.7807 12.2894 34.3772C12.886 34.9738 13.646 35.244 14.6091 35.3735C15.5501 35.5 16.7562 35.5 18.2951 35.5H18.3333H21.6667H21.7049C23.2438 35.5 24.4499 35.5 25.3909 35.3735C26.354 35.244 27.114 34.9738 27.7106 34.3772C28.3071 33.7807 28.5773 33.0207 28.7068 32.0575C28.8333 31.1165 28.8333 29.9105 28.8333 28.3716V28.3333V11.6667V11.6284C28.8333 10.0895 28.8333 8.88346 28.7068 7.94247C28.5773 6.97931 28.3071 6.2193 27.7106 5.62276C27.114 5.02622 26.354 4.75599 25.3909 4.6265C24.4499 4.49998 23.2438 4.49999 21.7049 4.5L21.6667 4.5Z" stroke="#FFDB6E"/>
<path d="M11.6667 26.6667H28.3333" stroke="#FFDB6E"/>
</svg>
